<?xml version="1.0" standalone="no"?>
<!DOCTYPE svg PUBLIC "-//W3C//DTD SVG 20010904//EN"
 "http://www.w3.org/TR/2001/REC-SVG-20010904/DTD/svg10.dtd">
<svg version="1.0" xmlns="http://www.w3.org/2000/svg"
 width="500.000000pt" height="500.000000pt" viewBox="0 0 500.000000 500.000000"
 preserveAspectRatio="xMidYMid meet">

<g transform="translate(0.000000,500.000000) scale(0.100000,-0.100000)"
fill="#000000" stroke="none">
<path d="M2395 4240 c-38 -4 -121 -13 -182 -19 -62 -6 -125 -16 -140 -23 -16
-6 -53 -14 -85 -18 -31 -4 -83 -20 -115 -35 -32 -16 -74 -35 -93 -44 -19 -9
-37 -19 -40 -22 -3 -4 -24 -10 -46 -13 -27 -5 -52 -18 -70 -37 -15 -16 -33
-29 -40 -29 -12 0 -73 -45 -122 -89 -12 -12 -25 -21 -28 -21 -7 0 -127 -105
-167 -144 l-29 -30 22 -16 21 -16 -22 -19 c-39 -36 -135 -158 -191 -245 -282
-434 -349 -962 -183 -1456 121 -363 380 -687 712 -893 236 -146 576 -249 831
-250 57 -1 72 -4 72 -16 0 -18 -43 -20 -89 -4 -25 9 -35 9 -44 0 -21 -22 18
-38 109 -44 55 -4 94 -2 107 5 11 6 52 12 90 15 39 2 75 7 81 12 6 5 29 11 51
14 89 13 182 35 212 50 18 10 41 17 53 17 11 0 33 9 49 21 15 11 48 23 72 25
67 8 86 13 101 27 12 12 79 57 120 82 57 34 113 79 184 150 110 108 167 161
179 166 10 4 20 18 82 109 20 30 46 65 57 78 62 70 215 410 237 527 5 28 16
92 24 144 9 51 17 97 20 100 4 8 5 192 2 311 -3 103 -26 248 -44 287 -9 17
-19 49 -24 70 -25 118 -135 368 -201 458 -16 22 -51 74 -78 115 -53 80 -209
246 -279 295 -23 17 -59 44 -79 61 -76 62 -228 151 -342 199 -36 15 -73 31
-82 36 -38 20 -206 70 -243 73 -22 2 -47 6 -55 9 -8 3 -35 8 -60 11 -25 3 -56
8 -70 10 -68 10 -182 13 -245 6z m309 -754 c9 -73 19 -150 23 -170 l6 -36
-232 0 c-127 0 -231 3 -231 8 0 4 9 80 21 170 l22 162 187 0 186 0 18 -134z
m0 -261 l-27 -35 -180 2 -179 3 -26 33 -25 32 232 0 232 0 -27 -35z m47 -82
c36 -21 49 -34 49 -50 l0 -23 -300 0 -300 0 0 23 c0 18 12 29 53 49 51 26 56
27 251 27 l198 1 49 -27z m411 -270 c38 -34 11 -70 -41 -52 -22 8 -31 17 -31
33 0 13 3 26 7 29 12 12 46 7 65 -10z m-991 -19 c16 -19 2 -34 -32 -34 -30 0
-46 18 -36 44 7 16 51 10 68 -10z m573 -9 c16 -12 18 -22 12 -62 -4 -26 -9
-64 -10 -83 -9 -100 -18 -164 -27 -188 -15 -39 -27 -122 -18 -122 5 0 28 20
51 43 47 48 131 117 142 117 12 0 -52 -87 -69 -94 -9 -3 -22 -20 -30 -38 -13
-33 -81 -106 -92 -100 -11 6 -73 -118 -73 -146 0 -16 -40 -137 -52 -157 -3 -5
-8 -27 -12 -48 -4 -21 -13 -40 -20 -43 -8 -3 -23 -31 -35 -63 -24 -67 -76
-140 -115 -160 -37 -20 -69 -3 -85 47 -13 37 -12 48 13 127 15 47 31 83 35 81
4 -3 13 7 20 22 11 25 10 26 -4 8 -21 -27 -19 -13 5 35 12 22 25 37 29 34 5
-2 15 3 22 13 13 15 12 16 -3 3 -10 -7 -18 -9 -18 -3 0 12 25 33 32 26 3 -3
20 14 38 38 l32 43 -31 -35 c-17 -19 -31 -31 -31 -26 0 4 26 36 58 72 38 43
63 81 74 116 13 40 16 44 12 18 l-5 -35 17 29 c10 18 14 41 11 65 -3 20 -3 27
0 16 11 -37 62 214 56 272 l-6 52 -27 -34 c-15 -19 -33 -48 -40 -65 -7 -16
-16 -30 -21 -30 -5 0 -9 -6 -9 -13 0 -18 -138 -227 -150 -227 -5 0 -12 -10
-16 -22 -10 -35 -65 -77 -99 -77 -19 0 -43 11 -65 30 -31 27 -35 35 -34 77 2
60 29 131 102 262 66 119 89 137 148 121 21 -6 49 -22 64 -36 27 -26 60 -26
60 0 0 7 11 20 25 29 14 9 24 20 21 24 -8 13 64 102 82 102 9 0 25 -7 36 -15z
m350 -98 c21 -16 22 -41 3 -92 -53 -139 -78 -215 -86 -264 -6 -31 -13 -71 -17
-90 -6 -29 -5 -32 9 -25 9 5 38 37 65 70 85 106 224 259 238 262 36 9 -6 -66
-73 -130 -34 -31 -58 -59 -56 -62 9 -9 -86 -142 -127 -180 -44 -40 -66 -44
-110 -21 -26 14 -30 21 -30 58 1 74 40 237 91 376 17 47 33 92 35 99 4 16 35
16 58 -1z m-979 -27 c19 -21 18 -27 -26 -256 -27 -141 -26 -147 11 -139 17 4
30 3 30 -2 0 -12 -38 -47 -65 -61 -14 -7 -27 -35 -43 -94 -30 -109 -109 -274
-158 -327 -63 -71 -117 -88 -154 -51 -25 25 -26 64 -1 87 10 10 26 42 35 70
10 29 22 56 28 59 7 4 8 2 4 -4 -4 -7 -4 -12 -1 -12 7 0 30 62 27 73 -1 4 2 7
8 7 5 0 10 9 10 21 0 11 4 18 9 15 4 -3 16 12 26 34 10 22 24 45 31 51 8 6 11
15 9 20 -3 4 12 20 34 35 30 19 42 35 45 58 3 17 15 92 26 166 12 74 24 165
27 203 l6 67 32 0 c19 0 39 -8 50 -20z m549 -114 c-3 -21 -9 -35 -11 -32 -3 3
-2 21 1 42 4 20 10 34 12 31 3 -3 2 -21 -2 -41z m-33 -142 c-9 -28 -9 -29 -10
-3 -1 14 2 29 6 32 11 12 13 2 4 -29z m-561 -959 c0 -88 1 -95 20 -95 11 0 20
-7 20 -16 0 -11 -8 -14 -32 -12 l-33 3 -3 108 c-2 91 0 107 13 107 12 0 15
-16 15 -95z m140 80 c0 -8 -9 -15 -20 -15 -13 0 -20 -7 -20 -19 0 -10 9 -21
20 -24 11 -3 20 -10 20 -16 0 -6 -9 -11 -20 -11 -17 0 -20 -7 -20 -45 0 -39 3
-45 21 -45 33 0 16 -25 -19 -28 l-32 -3 0 110 0 111 35 0 c24 0 35 -5 35 -15z
m130 4 c0 -6 -9 -13 -20 -16 -18 -5 -20 -14 -20 -100 0 -71 -3 -94 -12 -91 -9
3 -14 34 -16 96 -2 84 -5 92 -22 92 -11 0 -20 7 -20 15 0 12 13 15 55 15 33 0
55 -4 55 -11z m40 -4 c0 -8 -4 -15 -10 -15 -5 0 -10 7 -10 15 0 8 5 15 10 15
6 0 10 -7 10 -15z m98 3 c17 -17 15 -58 -3 -58 -8 0 -15 9 -15 20 0 11 -4 20
-10 20 -19 0 -10 -43 15 -76 29 -37 32 -75 9 -98 -18 -19 -20 -19 -45 -6 -12
7 -19 21 -19 41 0 35 23 36 28 1 2 -12 8 -20 13 -17 16 10 10 37 -16 71 -24
31 -34 92 -18 107 11 11 48 8 61 -5z m170 0 c17 -17 15 -38 -3 -38 -8 0 -15 5
-15 10 0 6 -4 10 -10 10 -12 0 -14 -147 -1 -154 5 -3 11 3 14 14 8 31 29 24
25 -7 -3 -31 -38 -43 -64 -23 -21 18 -20 163 2 184 19 19 36 20 52 4z m110 0
c7 -7 12 -44 12 -94 0 -74 -2 -85 -22 -98 -15 -11 -26 -12 -40 -5 -15 8 -18
22 -18 97 0 89 8 112 40 112 9 0 21 -5 28 -12z m106 -10 c11 -15 16 -45 16
-90 0 -55 -4 -72 -21 -89 -11 -11 -30 -19 -42 -17 -21 3 -22 9 -25 111 l-3
107 30 0 c20 0 35 -8 45 -22z m106 7 c0 -8 -9 -15 -20 -15 -13 0 -20 -7 -20
-20 0 -13 7 -20 20 -20 11 0 20 -7 20 -15 0 -8 -9 -15 -20 -15 -17 0 -20 -7
-20 -45 0 -38 3 -45 20 -45 11 0 20 -7 20 -16 0 -11 -8 -14 -32 -12 l-33 3 -3
108 -3 107 36 0 c24 0 35 -4 35 -15z"/>
<path d="M2410 3581 c-25 -3 -50 -10 -56 -14 -30 -18 -51 -220 -25 -237 23
-13 173 -23 248 -16 107 11 103 7 103 87 0 76 -15 153 -34 168 -15 12 -180 21
-236 12z"/>
<path d="M2590 3225 c0 -11 11 -15 40 -15 29 0 40 4 40 15 0 11 -11 15 -40 15
-29 0 -40 -4 -40 -15z"/>
<path d="M2388 3103 c68 -2 176 -2 240 0 64 1 9 3 -123 3 -132 0 -185 -2 -117
-3z"/>
<path d="M2431 2645 c-17 -20 -31 -41 -31 -48 0 -7 -13 -34 -30 -60 -16 -26
-33 -59 -36 -75 -4 -15 -15 -44 -26 -65 -11 -21 -18 -46 -16 -55 2 -10 32 21
81 84 43 54 86 110 97 122 11 13 20 28 20 33 0 5 5 9 10 9 13 0 13 33 -2 65
-15 34 -30 32 -67 -10z"/>
<path d="M2636 2379 c-4 -23 -5 -44 -2 -46 2 -2 7 14 11 37 4 23 5 43 2 46 -2
3 -7 -14 -11 -37z"/>
<path d="M2760 2389 c0 -5 5 -7 10 -4 6 3 10 8 10 11 0 2 -4 4 -10 4 -5 0 -10
-5 -10 -11z"/>
<path d="M2544 2145 c-3 -8 -14 -17 -23 -20 -10 -3 -33 -29 -52 -58 -18 -28
-39 -58 -47 -66 -7 -7 -11 -19 -8 -26 2 -7 -2 -30 -9 -51 -16 -45 -19 -84 -6
-84 5 0 36 62 70 138 65 147 80 158 31 23 -34 -92 -74 -177 -99 -205 -9 -11
-10 -16 -3 -12 22 13 57 76 102 183 43 102 58 125 41 65 -12 -41 -7 -41 13 0
18 34 21 62 7 54 -5 -4 -7 11 -4 34 6 39 -2 54 -13 25z"/>
<path d="M2483 1889 c-23 -49 -39 -89 -37 -89 7 0 87 171 82 175 -2 2 -22 -36
-45 -86z"/>
<path d="M2400 1759 c0 -5 5 -7 10 -4 6 3 10 8 10 11 0 2 -4 4 -10 4 -5 0 -10
-5 -10 -11z"/>
<path d="M3106 2359 c-42 -46 -54 -71 -28 -55 12 7 84 106 78 106 -2 0 -25
-23 -50 -51z"/>
<path d="M1900 2154 c-17 -20 -37 -48 -43 -63 -6 -14 -18 -37 -27 -51 -9 -14
-27 -59 -40 -100 -12 -41 -24 -77 -26 -80 -1 -3 1 -12 5 -19 10 -15 108 125
117 167 3 15 12 41 19 57 7 17 16 45 20 64 5 22 10 29 15 21 5 -8 8 -3 7 13
-2 35 -9 34 -47 -9z"/>
<path d="M1969 2126 c-15 -42 -26 -61 -32 -53 -5 7 -6 4 -2 -9 3 -13 -4 -45
-19 -78 -27 -60 -27 -76 0 -25 22 44 86 221 80 226 -2 2 -14 -25 -27 -61z"/>
<path d="M1810 1834 c-17 -15 -29 -28 -27 -31 3 -2 20 10 38 26 41 38 33 41
-11 5z"/>
<path d="M2720 1489 c0 -51 4 -78 10 -74 6 3 10 40 10 81 0 43 -4 74 -10 74
-6 0 -10 -34 -10 -81z"/>
<path d="M2820 1490 c0 -61 3 -81 13 -77 8 2 12 27 12 77 0 50 -4 75 -12 78
-10 3 -13 -17 -13 -78z"/>
<path d="M1100 3565 c0 -8 5 -15 10 -15 6 0 10 7 10 15 0 8 -4 15 -10 15 -5 0
-10 -7 -10 -15z"/>
<path d="M1040 1485 c7 -8 16 -15 21 -15 5 0 9 7 9 15 0 9 -9 15 -21 15 -18 0
-19 -2 -9 -15z"/>
<path d="M1090 1424 c0 -3 16 -26 36 -50 29 -35 39 -42 50 -33 21 17 17 26
-15 37 -16 6 -39 20 -50 31 -12 12 -21 18 -21 15z"/>
<path d="M1245 1251 c-6 -11 43 -56 52 -48 3 4 -6 18 -20 31 -15 14 -29 21
-32 17z"/>
<path d="M1728 923 c7 -3 16 -2 19 1 4 3 -2 6 -13 5 -11 0 -14 -3 -6 -6z"/>
<path d="M2070 830 c0 -5 -17 -10 -37 -11 -34 -1 -32 -2 22 -15 33 -7 63 -13
68 -14 14 0 7 38 -9 44 -24 9 -44 7 -44 -4z"/>
</g>
</svg>
